<svg width="142" height="46" viewBox="0 0 142 46" fill="none" xmlns="http://www.w3.org/2000/svg">
<path d="M0 10.5C0 7.23841 0 5.60761 0.532843 4.32122C1.2433 2.60602 2.60602 1.2433 4.32122 0.532843C5.60761 0 7.23841 0 10.5 0H131.5C134.762 0 136.392 0 137.679 0.532843C139.394 1.2433 140.757 2.60602 141.467 4.32122C142 5.60761 142 7.23841 142 10.5V35.5C142 38.7616 142 40.3924 141.467 41.6788C140.757 43.394 139.394 44.7567 137.679 45.4672C136.392 46 134.762 46 131.5 46H10.5C7.23841 46 5.60761 46 4.32122 45.4672C2.60602 44.7567 1.2433 43.394 0.532843 41.6788C0 40.3924 0 38.7616 0 35.5V10.5Z" fill="white"/>
<path d="M96.4732 22.0809V24.7156H94.7739V26.4434H96.4732V32.3141C96.4732 34.3188 97.4064 35.1206 99.754 35.1206C100.167 35.1206 100.559 35.0729 100.903 35.0156V33.3069C100.609 33.3355 100.422 33.3546 100.098 33.3546C99.0467 33.3546 98.5851 32.8773 98.5851 31.7891V26.4434H100.903V24.7156H98.5851V22.0809H96.4732Z" fill="#8B7FFE"/>
<path d="M106.884 35.2638C110.007 35.2638 111.923 33.2305 111.923 29.8608C111.923 26.5102 109.997 24.4674 106.884 24.4674C103.76 24.4674 101.835 26.5102 101.835 29.8608C101.835 33.2305 103.75 35.2638 106.884 35.2638ZM106.884 33.4405C105.047 33.4405 104.015 32.1327 104.015 29.8608C104.015 27.608 105.047 26.2907 106.884 26.2907C108.711 26.2907 109.752 27.608 109.752 29.8608C109.752 32.1232 108.711 33.4405 106.884 33.4405Z" fill="#8B7FFE"/>
<path d="M113.561 35.0633H115.673V28.9253C115.673 27.4648 116.803 26.4816 118.404 26.4816C118.777 26.4816 119.406 26.5484 119.583 26.6057V24.5819C119.357 24.5247 118.954 24.496 118.64 24.496C117.245 24.496 116.056 25.2406 115.752 26.262H115.595V24.6679H113.561V35.0633Z" fill="#8B7FFE"/>
<path d="M124.826 26.2143C126.388 26.2143 127.41 27.2739 127.459 28.9062H122.056C122.174 27.2834 123.265 26.2143 124.826 26.2143ZM127.449 32.2568C127.056 33.0682 126.182 33.5169 124.905 33.5169C123.215 33.5169 122.125 32.3618 122.056 30.5386V30.424H129.61V29.7081C129.61 26.4434 127.812 24.4674 124.836 24.4674C121.821 24.4674 119.905 26.577 119.905 29.899C119.905 33.221 121.781 35.2638 124.846 35.2638C127.292 35.2638 129.001 34.1183 129.482 32.2568H127.449Z" fill="#8B7FFE"/>
<path d="M82.624 31.2244C82.7869 33.7771 84.9757 35.4096 88.2336 35.4096C91.7154 35.4096 93.8941 33.698 93.8941 30.9672C93.8941 28.8202 92.6521 27.6329 89.6386 26.9502L88.0198 26.5644C86.1058 26.129 85.3321 25.5453 85.3321 24.5262C85.3321 23.24 86.5334 22.399 88.3354 22.399C90.0458 22.399 91.2268 23.2202 91.4406 24.5361H93.66C93.5276 22.1318 91.3489 20.4399 88.366 20.4399C85.159 20.4399 83.021 22.1318 83.021 24.6746C83.021 26.7721 84.2325 28.0188 86.8897 28.6223L88.7834 29.0675C90.7279 29.5128 91.5831 30.1658 91.5831 31.2541C91.5831 32.5206 90.2392 33.4407 88.4067 33.4407C86.4418 33.4407 85.0775 32.5799 84.8841 31.2244H82.624Z" fill="#8B7FFE"/>
<path d="M60.7473 24.496C59.2935 24.496 58.0363 25.2024 57.388 26.3861H57.2308V24.6679H55.1975V38.519H57.3094V33.4883H57.4764C58.0363 34.586 59.2444 35.2352 60.7669 35.2352C63.4682 35.2352 65.1871 33.1637 65.1871 29.8608C65.1871 26.5579 63.4682 24.496 60.7473 24.496ZM60.1481 33.3928C58.38 33.3928 57.2701 32.0373 57.2701 29.8704C57.2701 27.6939 58.38 26.3384 60.1579 26.3384C61.9456 26.3384 63.0163 27.6653 63.0163 29.8608C63.0163 32.0659 61.9456 33.3928 60.1481 33.3928Z" fill="#8B7FFE"/>
<path d="M72.5768 24.496C71.1231 24.496 69.8658 25.2024 69.2175 26.3861H69.0603V24.6679H67.0271V38.519H69.1389V33.4883H69.3059C69.8658 34.586 71.074 35.2352 72.5965 35.2352C75.2977 35.2352 77.0166 33.1637 77.0166 29.8608C77.0166 26.5579 75.2977 24.496 72.5768 24.496ZM71.9777 33.3928C70.2096 33.3928 69.0996 32.0373 69.0996 29.8704C69.0996 27.6939 70.2096 26.3384 71.9875 26.3384C73.7752 26.3384 74.8459 27.6653 74.8459 29.8608C74.8459 32.0659 73.7752 33.3928 71.9777 33.3928Z" fill="#8B7FFE"/>
<path d="M51.4085 35.0633H53.8315L48.5273 20.7862H46.0737L40.7695 35.0633H43.1111L44.4652 31.2739H50.0646L51.4085 35.0633ZM47.1835 23.3785H47.3565L49.4843 29.4138H45.0455L47.1835 23.3785Z" fill="#8B7FFE"/>
<path d="M42.1875 10.0176V16.905H44.7463C46.8581 16.905 48.0811 15.6401 48.0811 13.4398C48.0811 11.2729 46.8483 10.0176 44.7463 10.0176H42.1875ZM43.2876 10.9913H44.6235C46.092 10.9913 46.9613 11.8981 46.9613 13.4541C46.9613 15.034 46.1067 15.9313 44.6235 15.9313H43.2876V10.9913Z" fill="#8B7FFE"/>
<path d="M51.8264 17.0052C53.3882 17.0052 54.3459 15.9886 54.3459 14.3037C54.3459 12.6284 53.3833 11.607 51.8264 11.607C50.2646 11.607 49.302 12.6284 49.302 14.3037C49.302 15.9886 50.2597 17.0052 51.8264 17.0052ZM51.8264 16.0936C50.908 16.0936 50.3923 15.4397 50.3923 14.3037C50.3923 13.1773 50.908 12.5186 51.8264 12.5186C52.7399 12.5186 53.2605 13.1773 53.2605 14.3037C53.2605 15.4349 52.7399 16.0936 51.8264 16.0936Z" fill="#8B7FFE"/>
<path d="M62.5016 11.7072H61.4457L60.4929 15.6735H60.4094L59.3093 11.7072H58.2975L57.1974 15.6735H57.1188L56.1611 11.7072H55.0905L56.5638 16.905H57.6492L58.7494 13.0771H58.8329L59.9379 16.905H61.0331L62.5016 11.7072Z" fill="#8B7FFE"/>
<path d="M63.7176 16.905H64.7736V13.8646C64.7736 13.0532 65.2696 12.5473 66.0505 12.5473C66.8314 12.5473 67.2047 12.9625 67.2047 13.7978V16.905H68.2606V13.54C68.2606 12.3038 67.6025 11.607 66.409 11.607C65.6036 11.607 65.0732 11.9554 64.8129 12.5329H64.7343V11.7072H63.7176V16.905Z" fill="#8B7FFE"/>
<path d="M69.9236 16.905H70.9795V9.67871H69.9236V16.905Z" fill="#8B7FFE"/>
<path d="M74.9508 17.0052C76.5125 17.0052 77.4702 15.9886 77.4702 14.3037C77.4702 12.6284 76.5076 11.607 74.9508 11.607C73.389 11.607 72.4263 12.6284 72.4263 14.3037C72.4263 15.9886 73.3841 17.0052 74.9508 17.0052ZM74.9508 16.0936C74.0323 16.0936 73.5167 15.4397 73.5167 14.3037C73.5167 13.1773 74.0323 12.5186 74.9508 12.5186C75.8643 12.5186 76.3849 13.1773 76.3849 14.3037C76.3849 15.4349 75.8643 16.0936 74.9508 16.0936Z" fill="#8B7FFE"/>
<path d="M80.6164 16.127C80.0418 16.127 79.6243 15.8549 79.6243 15.3872C79.6243 14.929 79.9583 14.6855 80.695 14.6378L82.0014 14.5567V14.991C82.0014 15.6354 81.4121 16.127 80.6164 16.127ZM80.3463 16.9909C81.0486 16.9909 81.6331 16.6949 81.9523 16.1747H82.0358V16.905H83.0524V13.3539C83.0524 12.2561 82.2961 11.607 80.9553 11.607C79.7422 11.607 78.8778 12.1797 78.7698 13.0723H79.7913C79.9092 12.7048 80.3168 12.4948 80.9062 12.4948C81.6281 12.4948 82.0014 12.805 82.0014 13.3539V13.8025L80.5526 13.8837C79.2805 13.96 78.5635 14.4994 78.5635 15.4349C78.5635 16.3847 79.3149 16.9909 80.3463 16.9909Z" fill="#8B7FFE"/>
<path d="M86.6357 16.9909C87.3724 16.9909 87.9961 16.652 88.3154 16.084H88.3989V16.905H89.4106V9.67871H88.3547V12.5329H88.2761C87.9863 11.9602 87.3675 11.6213 86.6357 11.6213C85.2851 11.6213 84.4158 12.6618 84.4158 14.3037C84.4158 15.9504 85.2753 16.9909 86.6357 16.9909ZM86.9353 12.5425C87.8193 12.5425 88.3743 13.225 88.3743 14.3085C88.3743 15.3967 87.8242 16.0697 86.9353 16.0697C86.0414 16.0697 85.5061 15.4063 85.5061 14.3037C85.5061 13.2107 86.0464 12.5425 86.9353 12.5425Z" fill="#8B7FFE"/>
<path d="M96.2579 17.0052C97.8197 17.0052 98.7774 15.9886 98.7774 14.3037C98.7774 12.6284 97.8148 11.607 96.2579 11.607C94.6961 11.607 93.7335 12.6284 93.7335 14.3037C93.7335 15.9886 94.6912 17.0052 96.2579 17.0052ZM96.2579 16.0936C95.3395 16.0936 94.8238 15.4397 94.8238 14.3037C94.8238 13.1773 95.3395 12.5186 96.2579 12.5186C97.1714 12.5186 97.692 13.1773 97.692 14.3037C97.692 15.4349 97.1714 16.0936 96.2579 16.0936Z" fill="#8B7FFE"/>
<path d="M100.175 16.905H101.231V13.8646C101.231 13.0532 101.727 12.5473 102.508 12.5473C103.289 12.5473 103.662 12.9625 103.662 13.7978V16.905H104.718V13.54C104.718 12.3038 104.06 11.607 102.867 11.607C102.061 11.607 101.531 11.9554 101.27 12.5329H101.192V11.7072H100.175V16.905Z" fill="#8B7FFE"/>
<path d="M109.581 10.4137V11.7311H108.732V12.595H109.581V15.5303C109.581 16.5327 110.048 16.9336 111.222 16.9336C111.428 16.9336 111.624 16.9097 111.796 16.8811V16.0267C111.649 16.0411 111.556 16.0506 111.394 16.0506C110.868 16.0506 110.637 15.812 110.637 15.2678V12.595H111.796V11.7311H110.637V10.4137H109.581Z" fill="#8B7FFE"/>
<path d="M113.214 16.905H114.27V13.8694C114.27 13.0818 114.751 12.552 115.615 12.552C116.362 12.552 116.76 12.972 116.76 13.8025V16.905H117.816V13.5496C117.816 12.3134 117.113 11.6118 115.974 11.6118C115.168 11.6118 114.604 11.9602 114.343 12.5425H114.26V9.67871H113.214V16.905Z" fill="#8B7FFE"/>
<path d="M121.625 12.4804C122.406 12.4804 122.916 13.0102 122.941 13.8264H120.24C120.299 13.015 120.844 12.4804 121.625 12.4804ZM122.936 15.5017C122.74 15.9074 122.303 16.1317 121.664 16.1317C120.819 16.1317 120.274 15.5542 120.24 14.6426V14.5853H124.017V14.2273C124.017 12.595 123.118 11.607 121.63 11.607C120.122 11.607 119.164 12.6618 119.164 14.3228C119.164 15.9838 120.102 17.0052 121.635 17.0052C122.857 17.0052 123.712 16.4324 123.953 15.5017H122.936Z" fill="#8B7FFE"/>
<path d="M29.3109 23.3457C29.3366 21.4126 30.4048 19.5834 32.0995 18.5709C31.0304 17.087 29.2397 16.1462 27.3767 16.0895C25.3896 15.8868 23.4632 17.2451 22.4506 17.2451C21.4184 17.2451 19.8593 16.1097 18.1805 16.1432C15.9922 16.2119 13.9522 17.421 12.8875 19.2803C10.599 23.131 12.306 28.7902 14.4983 31.9028C15.5951 33.4269 16.877 35.1294 18.5543 35.0691C20.1957 35.0029 20.8087 34.0519 22.79 34.0519C24.7528 34.0519 25.328 35.0691 27.0393 35.0307C28.8006 35.0029 29.9102 33.4997 30.9686 31.9612C31.7566 30.8751 32.3631 29.6749 32.7654 28.4048C30.6956 27.554 29.3134 25.5297 29.3109 23.3457Z" fill="#8B7FFE"/>
<path d="M26.0785 14.0425C27.0388 12.9222 27.5119 11.4822 27.3973 10.0283C25.9302 10.1781 24.575 10.8595 23.6017 11.9369C22.6499 12.9895 22.1547 14.4042 22.2483 15.8025C23.716 15.8172 25.1588 15.1542 26.0785 14.0425Z" fill="#8B7FFE"/>
</svg>
